<?xml version="1.0" standalone="no"?>
<!DOCTYPE svg PUBLIC "-//W3C//DTD SVG 20010904//EN"
 "http://www.w3.org/TR/2001/REC-SVG-20010904/DTD/svg10.dtd">
<svg version="1.0" xmlns="http://www.w3.org/2000/svg"
 width="300.000000pt" height="102.000000pt" viewBox="0 0 300.000000 102.000000"
 preserveAspectRatio="xMidYMid meet">
<metadata>
Created by potrace 1.10, written by Peter Selinger 2001-2011
</metadata>
<g transform="translate(0.000000,102.000000) scale(0.100000,-0.100000)"
fill="#000000" stroke="none">
<path d="M155 651 c-68 -17 -104 -52 -112 -108 -9 -66 57 -123 142 -123 l35 0
0 85 0 85 -36 0 c-22 0 -33 -4 -29 -10 4 -6 15 -8 26 -5 17 6 19 1 19 -64 0
-71 0 -71 -27 -71 -40 0 -89 33 -101 67 -20 58 34 123 103 123 16 0 25 6 25
15 0 16 -1 16 -45 6z"/>
<path d="M260 539 c0 -103 2 -119 16 -119 12 0 15 7 12 25 -6 30 5 32 40 6 63
-44 111 -61 172 -61 42 0 60 4 59 13 0 6 -19 66 -43 132 l-43 119 -33 -99
c-18 -55 -36 -104 -40 -109 -5 -4 -22 0 -38 10 l-30 17 29 28 c61 57 28 128
-68 150 l-33 7 0 -119z m63 80 c34 -15 50 -52 36 -83 -10 -21 -46 -46 -67 -46
-4 0 -6 31 -4 70 2 38 5 70 7 70 2 0 15 -5 28 -11z m170 -94 l16 -45 -35 0
c-38 0 -38 0 -25 32 5 13 12 31 15 41 8 26 13 21 29 -28z m31 -87 c9 -35 -7
-42 -63 -28 -28 7 -51 14 -51 16 0 18 32 33 66 34 35 0 43 -4 48 -22z"/>
<path d="M589 658 c-1 -2 -2 -56 -3 -120 -2 -92 0 -118 11 -118 10 0 13 24 13
101 l0 102 33 -25 c31 -24 32 -29 35 -102 2 -59 6 -76 18 -76 12 0 14 19 12
117 -2 79 -7 118 -15 120 -7 3 -13 -9 -15 -31 l-3 -36 -37 35 c-33 32 -46 40
-49 33z"/>
<path d="M740 538 l0 -118 40 0 c104 0 170 91 124 169 -22 38 -48 52 -111 60
l-53 8 0 -119z m131 56 c52 -55 14 -140 -67 -151 l-39 -5 2 99 c1 54 2 99 3
99 0 1 18 -3 39 -8 22 -6 50 -21 62 -34z"/>
<path d="M1010 541 c0 -90 3 -121 13 -121 8 0 12 22 12 77 l0 78 33 3 32 3 0
-80 c0 -47 4 -81 10 -81 6 0 10 47 10 120 0 73 -4 120 -10 120 -5 0 -10 -16
-10 -35 0 -33 -2 -35 -36 -35 -34 0 -35 1 -32 32 2 19 -2 33 -9 35 -10 4 -13
-24 -13 -116z"/>
<path d="M1224 646 c-45 -20 -64 -52 -64 -109 0 -58 22 -95 68 -114 48 -20 96
-8 132 33 53 60 34 155 -36 189 -39 18 -59 18 -100 1z m114 -42 c24 -27 30
-90 12 -125 -15 -28 -65 -51 -95 -43 -36 9 -75 59 -75 97 1 93 99 138 158 71z"/>
<path d="M1394 648 c-3 -4 6 -8 20 -8 l26 0 0 -110 c0 -81 3 -110 13 -110 9 0
11 27 9 110 l-3 110 27 0 c15 0 24 3 20 7 -10 11 -106 12 -112 1z"/>
<path d="M1540 538 l0 -118 48 2 c43 1 44 2 10 5 l-38 4 0 76 0 76 30 -6 c16
-4 32 -2 35 3 4 6 -9 10 -29 10 -32 0 -36 3 -36 25 0 22 4 25 35 25 19 0 35 5
35 10 0 7 -19 10 -45 9 l-45 -3 0 -118z"/>
<path d="M1667 653 c-4 -3 -7 -57 -7 -120 l0 -113 53 2 c43 1 45 2 15 5 l-38
4 0 115 c0 104 -5 126 -23 107z"/>
<path d="M1915 653 c-40 -11 -65 -35 -65 -64 0 -23 8 -34 39 -53 22 -14 42
-30 46 -35 12 -20 -15 -50 -55 -62 -48 -15 -54 -34 -7 -25 74 14 111 77 66
113 -80 66 -76 59 -56 81 10 11 31 22 48 26 16 3 29 10 29 16 0 10 -11 11 -45
3z"/>
<path d="M2000 538 l0 -118 48 2 c43 1 44 2 10 5 l-38 4 0 76 0 76 30 -6 c16
-4 32 -2 35 3 4 6 -9 10 -29 10 -32 0 -36 3 -36 25 0 22 4 25 35 25 19 0 35 5
35 10 0 7 -19 10 -45 9 l-45 -3 0 -118z"/>
<path d="M2127 653 c-4 -3 -7 -57 -7 -119 l0 -113 54 -15 c57 -17 103 -20 130
-10 26 10 7 24 -24 18 -16 -4 -52 -1 -79 6 l-51 12 0 114 c0 104 -5 126 -23
107z"/>
<path d="M2197 653 c-4 -3 -7 -51 -7 -105 0 -80 3 -98 15 -98 12 0 15 18 15
105 0 96 -5 117 -23 98z"/>
<path d="M2260 540 c0 -147 18 -163 22 -19 l3 102 33 -27 c31 -27 32 -31 32
-102 0 -60 3 -74 15 -74 13 0 15 17 13 117 -2 79 -7 118 -15 120 -7 3 -13 -9
-15 -31 l-3 -36 -37 35 c-20 19 -39 35 -42 35 -3 0 -6 -54 -6 -120z"/>
<path d="M2410 552 c0 -116 9 -142 49 -142 44 0 52 20 54 134 1 78 -1 110 -10
113 -9 3 -13 -25 -15 -109 -3 -108 -4 -113 -25 -116 -22 -3 -22 -1 -25 109 -2
79 -7 114 -15 117 -10 3 -13 -23 -13 -106z"/>
<path d="M2556 653 c-3 -4 -6 -57 -6 -120 0 -94 3 -113 15 -113 12 0 15 18 15
101 l0 100 35 -27 c34 -26 35 -28 35 -100 0 -43 4 -74 10 -74 6 0 10 47 10
120 0 73 -4 120 -10 120 -5 0 -10 -16 -10 -36 l0 -36 -44 35 c-24 20 -46 33
-50 30z"/>
<path d="M2704 648 c-3 -4 5 -8 18 -8 23 0 23 0 20 -110 -4 -96 -2 -110 12
-110 14 0 16 16 16 110 0 103 1 110 20 110 11 0 20 4 20 8 0 5 -23 8 -51 8
-27 0 -52 -3 -55 -8z"/>
<path d="M2845 651 c-3 -2 -5 -55 -5 -118 l0 -113 53 2 c43 1 45 2 15 5 l-38
4 0 75 0 76 30 -7 c19 -4 30 -3 30 4 0 6 -13 11 -30 11 -25 0 -30 4 -30 25 0
22 4 25 35 25 19 0 35 5 35 10 0 11 -85 11 -95 1z"/>
<path d="M947 642 c-14 -3 -16 -7 -6 -18 15 -18 35 -18 42 0 6 16 -9 24 -36
18z"/>
<path d="M945 449 c-11 -4 -14 -8 -7 -8 7 -1 11 -5 7 -10 -3 -6 4 -9 15 -8 22
1 35 23 17 30 -7 2 -21 1 -32 -4z"/>
<path d="M1765 389 c-69 -22 -178 -29 -270 -18 -88 10 -290 1 -362 -17 l-24
-6 21 -15 c20 -14 30 -14 103 3 65 15 115 18 242 16 161 -2 268 9 315 34 29
15 18 16 -25 3z"/>
<path d="M220 380 c30 -5 145 -14 255 -20 110 -5 222 -15 249 -20 134 -27 167
-50 74 -50 -35 0 -48 -3 -39 -9 8 -5 66 -9 130 -9 91 0 130 4 180 21 l65 21
-30 12 c-16 7 -51 10 -79 7 -36 -4 -69 1 -120 18 -64 21 -89 23 -310 24 -132
1 -283 5 -335 8 -75 5 -84 4 -40 -3z"/>
</g>
</svg>
