<?xml version="1.0" standalone="no"?>
<!DOCTYPE svg PUBLIC "-//W3C//DTD SVG 20010904//EN"
 "http://www.w3.org/TR/2001/REC-SVG-20010904/DTD/svg10.dtd">
<svg version="1.0" xmlns="http://www.w3.org/2000/svg"
 width="1354.000000pt" height="200.000000pt" viewBox="0 0 1354.000000 200.000000"
 preserveAspectRatio="xMidYMid meet">

<g transform="translate(0.000000,200.000000) scale(0.100000,-0.100000)"
fill="#000000" stroke="none">
<path d="M5615 1855 c-193 -50 -324 -175 -370 -350 -19 -76 -19 -240 0 -324
34 -141 130 -263 260 -327 91 -44 167 -58 285 -50 191 11 337 106 413 268 43
91 57 156 57 265 0 157 -50 284 -155 388 -33 33 -85 72 -115 87 -113 54 -264
72 -375 43z m240 -68 c59 -17 145 -70 191 -119 85 -89 124 -196 124 -339 0
-192 -87 -339 -250 -421 -57 -29 -77 -33 -157 -36 -105 -4 -153 9 -241 66 -63
41 -109 94 -150 170 -40 75 -55 160 -50 275 3 84 8 103 41 169 48 99 106 162
180 199 109 56 206 67 312 36z"/>
<path d="M8680 1855 c-282 -54 -412 -250 -275 -414 24 -28 108 -91 122 -91 3
0 42 -24 87 -54 103 -70 126 -103 126 -183 0 -74 -22 -111 -99 -163 -57 -39
-168 -80 -218 -80 -17 0 -45 -3 -62 -6 -26 -6 -31 -11 -31 -37 l0 -30 90 7
c99 7 225 44 280 80 94 63 150 146 150 222 0 39 -15 92 -31 104 -3 3 -17 23
-31 45 -27 43 -52 62 -190 144 -164 98 -193 180 -101 282 54 60 151 101 296
124 33 5 37 9 37 35 0 29 -2 30 -42 29 -24 -1 -72 -7 -108 -14z"/>
<path d="M765 1850 c-237 -28 -433 -151 -520 -325 -35 -70 -40 -87 -43 -170
-5 -111 10 -173 65 -262 48 -78 126 -143 228 -193 135 -64 247 -89 403 -90
l92 0 0 380 0 380 -140 0 c-132 0 -140 -1 -140 -20 0 -18 8 -20 98 -22 l97 -3
3 -319 c2 -249 -1 -321 -10 -328 -14 -8 -52 -4 -153 13 -200 36 -361 143 -428
286 -28 60 -31 78 -31 153 1 72 6 95 31 151 73 159 273 284 486 304 l77 7 0
34 c0 38 1 38 -115 24z"/>
<path d="M1180 1336 l0 -526 50 0 50 0 0 108 c0 145 19 162 115 99 290 -190
464 -279 638 -326 103 -28 333 -30 417 -3 80 25 81 26 64 70 -7 20 -34 93 -59
162 -25 68 -50 130 -56 136 -5 6 -20 54 -33 105 -34 132 -74 236 -113 290 -51
71 -71 127 -76 209 -5 76 -24 160 -37 160 -7 0 -88 -230 -141 -395 -12 -38
-43 -128 -69 -200 -27 -71 -65 -177 -86 -234 -21 -57 -44 -106 -51 -108 -7 -3
-28 2 -46 11 -100 52 -277 167 -276 181 0 5 28 23 61 40 121 59 194 151 215
270 17 99 -19 217 -93 304 -73 85 -234 154 -391 166 l-83 7 0 -526z m192 430
c124 -38 210 -104 261 -200 16 -31 21 -59 22 -116 0 -84 -20 -137 -78 -202
-58 -65 -185 -128 -259 -128 l-38 0 0 323 c0 178 3 327 7 330 10 10 33 8 85
-7z m820 -362 c55 -144 110 -322 103 -334 -10 -16 -300 -13 -314 3 -10 13 7
66 114 359 21 57 35 80 48 75 6 -2 28 -48 49 -103z m137 -403 c6 -10 27 -67
47 -126 49 -142 51 -140 -133 -138 -152 1 -215 16 -370 88 -86 40 -91 59 -17
63 l50 3 18 52 c10 29 23 58 28 65 8 9 58 12 189 12 164 0 179 -1 188 -19z"/>
<path d="M2650 1335 l0 -525 45 0 45 0 0 460 c0 391 2 461 14 466 9 3 41 -17
78 -48 35 -29 103 -82 150 -118 l87 -65 1 -347 0 -348 54 0 54 0 -3 303 c-2
166 -4 402 -4 525 l-1 222 -50 0 -50 0 0 -129 c0 -79 -4 -132 -10 -136 -6 -4
-50 25 -98 64 -48 39 -93 71 -101 71 -17 0 -121 101 -121 118 0 8 -16 12 -45
12 l-45 0 0 -525z"/>
<path d="M3350 1336 l0 -526 99 0 c184 0 361 46 474 123 122 83 205 217 222
357 22 180 -101 385 -288 479 -112 57 -205 78 -369 87 l-138 7 0 -527z m360
416 c207 -70 326 -210 337 -395 5 -70 2 -93 -20 -154 -52 -151 -193 -262 -390
-307 -74 -17 -173 -23 -185 -11 -9 9 -9 865 1 889 7 17 15 18 95 11 49 -4 120
-18 162 -33z"/>
<path d="M4550 1335 l0 -525 55 0 55 0 2 358 3 357 130 3 c72 1 140 0 153 -3
l22 -5 0 -355 0 -355 45 0 45 0 0 525 0 525 -45 0 -44 0 -3 -142 -3 -143 -151
-3 -151 -3 -7 110 c-4 61 -4 126 0 146 l6 35 -56 0 -56 0 0 -525z"/>
<path d="M6310 1835 c0 -24 2 -24 93 -27 l92 -3 3 -497 2 -498 50 0 50 0 0
500 0 500 90 0 c89 0 90 0 90 25 l0 25 -235 0 -235 0 0 -25z"/>
<path d="M6950 1335 l0 -525 205 0 c197 0 205 1 205 20 0 18 -8 20 -157 22
l-158 3 0 335 0 335 138 3 c128 2 137 4 137 22 0 18 -9 20 -137 22 l-138 3 -3
118 -3 117 161 0 160 0 0 25 0 25 -205 0 -205 0 0 -525z"/>
<path d="M7520 1335 l0 -525 200 0 c193 0 200 1 200 20 0 19 -7 20 -144 20
-80 0 -147 4 -150 9 -3 4 -6 231 -6 505 l-2 496 -49 0 -49 0 0 -525z"/>
<path d="M9020 1335 l0 -525 205 0 c197 0 205 1 205 20 0 18 -8 20 -152 22
l-153 3 -5 80 c-3 44 -3 195 0 335 l5 255 138 3 c129 2 137 4 137 22 0 19 -7
20 -140 20 l-140 0 0 120 0 120 155 0 155 0 0 25 0 25 -205 0 -205 0 0 -525z"/>
<path d="M9590 1335 l0 -525 33 0 c33 0 89 -15 277 -71 179 -53 251 -63 356
-50 50 6 113 20 140 31 l48 21 -27 26 c-26 27 -27 27 -62 10 -21 -10 -74 -20
-123 -23 -100 -7 -176 6 -352 61 -200 63 -184 53 -192 115 -3 30 -6 252 -7
493 l-1 437 -45 0 -45 0 0 -525z"/>
<path d="M9910 1405 l0 -455 45 0 45 0 0 455 0 455 -45 0 -45 0 0 -455z"/>
<path d="M10190 1335 l0 -525 50 0 50 0 0 460 c0 421 1 460 17 460 19 0 60
-30 153 -110 36 -30 86 -71 112 -90 l47 -35 1 -342 0 -343 45 0 45 0 0 525 0
525 -45 0 -45 0 0 -135 c0 -158 -2 -160 -83 -92 -71 59 -107 83 -139 91 -18 4
-38 22 -53 47 -14 22 -32 42 -40 46 -8 3 -15 14 -15 24 0 16 -8 19 -50 19
l-50 0 0 -525z"/>
<path d="M10896 1383 c6 -441 8 -480 25 -509 30 -50 87 -69 204 -69 107 1 137
10 186 59 l26 26 6 271 c4 150 7 368 7 486 l0 213 -55 0 -55 0 0 -479 0 -479
-26 -31 c-14 -17 -43 -36 -65 -42 -33 -10 -45 -9 -76 5 -21 10 -47 29 -58 44
-19 26 -20 45 -23 505 l-3 477 -50 0 -49 0 6 -477z"/>
<path d="M11530 1335 l0 -525 50 0 51 0 -7 213 c-4 116 -3 323 1 460 6 211 9
247 23 247 13 0 131 -89 174 -131 9 -9 44 -38 77 -64 l61 -46 0 -340 0 -339
45 0 46 0 -5 393 c-2 215 -6 401 -7 412 -1 11 1 71 6 133 l8 112 -47 0 -46 0
0 -129 c0 -161 -6 -170 -76 -108 -63 56 -124 97 -145 97 -10 0 -29 15 -43 33
-14 17 -35 41 -46 52 -11 12 -20 28 -20 38 0 14 -9 17 -50 17 l-50 0 0 -525z"/>
<path d="M12213 1844 c-10 -26 9 -33 97 -36 l85 -3 3 -497 2 -498 50 0 50 0 0
500 0 500 90 0 c89 0 90 0 90 25 l0 25 -230 0 c-200 0 -231 -2 -237 -16z"/>
<path d="M12848 1335 l2 -525 200 0 c193 0 200 1 200 20 0 19 -7 20 -144 20
-109 0 -146 3 -155 14 -8 9 -11 107 -9 337 l3 324 133 3 c123 2 132 4 132 22
0 18 -9 20 -132 22 l-133 3 0 115 0 115 153 3 152 3 0 24 0 25 -202 0 -203 0
3 -525z"/>
<path d="M4328 1799 c-14 -24 -24 -29 -55 -29 l-38 0 32 -20 c29 -17 32 -22
23 -45 -14 -37 -13 -39 15 -21 30 20 55 20 81 1 28 -21 35 -18 23 12 -9 24 -7
31 15 50 l26 22 -37 3 c-27 2 -41 9 -49 26 -16 33 -18 33 -36 1z"/>
<path d="M4341 1549 c-2 -33 -28 -53 -67 -51 l-39 2 29 -24 c24 -20 27 -29 22
-51 -6 -24 -5 -27 11 -20 38 16 62 16 92 1 28 -15 46 -7 21 9 -21 13 -9 45 23
62 l32 18 -46 3 c-40 3 -48 7 -62 35 -9 18 -16 25 -16 16z"/>
<path d="M4332 1246 c-10 -23 -18 -26 -59 -27 l-48 0 33 -17 c30 -15 33 -20
29 -49 -7 -38 -6 -38 34 -17 28 14 33 14 66 -6 32 -19 35 -19 28 -3 -18 45
-17 52 17 70 l33 18 -47 3 c-27 2 -48 6 -48 11 0 4 -6 15 -13 25 -12 17 -14
16 -25 -8z"/>
<path d="M4340 988 c0 -23 -32 -46 -70 -50 l-35 -4 28 -14 c25 -12 28 -18 24
-47 l-6 -33 33 14 c28 11 38 11 65 0 43 -18 44 -18 31 5 -16 30 -12 40 22 60
l31 20 -44 3 c-33 2 -46 8 -55 26 -15 31 -24 38 -24 20z"/>
<path d="M968 653 c7 -3 16 -2 19 1 4 3 -2 6 -13 5 -11 0 -14 -3 -6 -6z"/>
<path d="M1038 643 c6 -2 18 -2 25 0 6 3 1 5 -13 5 -14 0 -19 -2 -12 -5z"/>
<path d="M1247 623 c18 -2 50 -2 70 0 21 2 7 4 -32 4 -38 0 -55 -2 -38 -4z"/>
<path d="M2655 618 c-132 -11 -939 -16 -1150 -7 l-150 7 125 -13 c241 -25 587
-45 769 -45 352 0 873 -58 1186 -132 44 -11 96 -23 115 -27 70 -16 206 -62
250 -85 97 -49 43 -77 -185 -96 -135 -11 -189 -19 -182 -26 3 -3 47 -14 97
-25 127 -26 273 -25 393 2 112 26 93 26 254 0 145 -23 312 -27 395 -10 29 6
91 27 138 47 137 56 281 103 337 109 51 6 65 23 19 23 -12 0 -33 11 -46 25
-36 39 -108 55 -234 54 -120 0 -218 -9 -336 -29 -73 -12 -76 -12 -128 13 -37
18 -63 24 -82 20 -22 -4 -37 2 -67 25 -21 17 -51 34 -68 37 -16 4 -66 17 -110
30 -148 42 -327 76 -530 100 -146 17 -619 19 -810 3z"/>
<path d="M7898 623 c6 -2 18 -2 25 0 6 3 1 5 -13 5 -14 0 -19 -2 -12 -5z"/>
<path d="M7858 613 c7 -3 16 -2 19 1 4 3 -2 6 -13 5 -11 0 -14 -3 -6 -6z"/>
<path d="M7805 605 c-10 -3 -84 -15 -245 -39 -224 -35 -461 -31 -840 14 -220
25 -686 28 -922 5 -321 -31 -376 -37 -473 -51 -139 -20 -268 -46 -278 -54 -5
-5 7 -13 27 -20 19 -6 46 -25 60 -41 14 -16 30 -29 36 -29 6 0 22 -7 35 -16
24 -15 30 -15 108 9 130 41 330 86 492 111 396 62 635 69 1114 31 250 -20 392
-15 626 21 157 24 331 62 285 62 -8 0 -19 -1 -25 -3z"/>
</g>
</svg>
